<?xml version="1.0" standalone="no"?>
<!DOCTYPE svg PUBLIC "-//W3C//DTD SVG 20010904//EN"
 "http://www.w3.org/TR/2001/REC-SVG-20010904/DTD/svg10.dtd">
<svg version="1.0" xmlns="http://www.w3.org/2000/svg"
 width="512.000000pt" height="512.000000pt" viewBox="0 0 512.000000 512.000000"
 preserveAspectRatio="xMidYMid meet">
<metadata>
Created by potrace 1.11, written by Peter Selinger 2001-2013
</metadata>
<g transform="translate(0.000000,512.000000) scale(0.100000,-0.100000)"
fill="#000000" stroke="none">
<path d="M4100 5114 c-79 -28 -158 -99 -203 -182 -16 -29 -40 -91 -54 -139
-20 -70 -122 -459 -137 -523 -7 -28 -117 -455 -152 -589 -20 -73 -37 -140 -39
-150 -3 -9 -9 -34 -15 -56 -6 -22 -13 -49 -15 -60 -3 -11 -9 -33 -13 -50 -11
-38 0 -72 -153 494 -128 472 -132 484 -189 541 -36 35 -82 54 -525 213 -246
88 -277 91 -362 42 -82 -49 -151 -151 -191 -285 -37 -121 -107 -360 -142 -480
-19 -65 -49 -166 -79 -265 -5 -16 -18 -61 -29 -100 -110 -376 -162 -554 -202
-685 l-32 -105 -28 100 c-15 55 -76 278 -135 495 -152 564 -147 550 -207 607
-30 29 -85 53 -318 137 -19 7 -118 44 -220 81 -255 93 -303 91 -415 -19 -81
-81 -133 -207 -140 -345 -5 -88 -3 -102 65 -356 10 -38 50 -189 89 -335 39
-146 77 -290 86 -320 21 -77 116 -430 229 -850 52 -195 109 -407 126 -470 40
-147 75 -277 111 -410 186 -697 197 -729 265 -775 17 -12 103 -47 190 -79 87
-33 173 -65 189 -72 38 -16 189 -69 281 -100 117 -38 181 -23 267 60 89 88 84
73 287 766 66 223 129 437 141 475 12 39 25 84 30 100 31 107 72 244 98 330
16 55 35 121 42 148 6 26 14 47 18 47 3 0 17 -42 29 -92 13 -51 29 -113 37
-138 7 -25 29 -106 49 -180 183 -684 187 -700 225 -750 35 -47 60 -67 101 -81
19 -6 49 -17 65 -25 39 -16 425 -158 532 -194 121 -42 197 -25 284 63 79 81
102 135 173 407 32 126 54 211 187 728 28 108 68 265 89 347 22 83 59 229 84
325 25 96 52 200 60 232 8 31 18 67 20 80 3 12 23 93 46 178 22 85 42 164 45
175 2 11 11 47 20 80 9 33 18 67 20 75 3 15 73 290 172 670 164 637 162 628
159 725 -5 132 -55 243 -125 280 -24 12 -166 66 -411 157 -30 11 -64 24 -75
28 -126 53 -267 87 -305 74z"/>
</g>
</svg>
